<svg xmlns="http://www.w3.org/2000/svg" viewBox="0 0 203.87 58.46"><defs><style>.cls-1{fill:#fe3456;}</style></defs><title>photoos logo_1</title><g id="Layer_2" data-name="Layer 2"><g id="Layer_1-2" data-name="Layer 1"><path class="cls-1" d="M0,54.33a15.45,15.45,0,0,1,.92-4L6.58,33q1.8-5.48,5-13.81t6.68-16a23,23,0,0,0-4.62,1.47c-1.47.64-2.62,1.19-3.46,1.62a5.08,5.08,0,0,1-1.64.66,2.91,2.91,0,0,1-1.7-1.05A2.81,2.81,0,0,1,5.77,4.07Q15.49,0,22.81,0a28.78,28.78,0,0,1,9.27,1.52,19,19,0,0,1,7.71,4.9A11,11,0,0,1,43,14.22a12.12,12.12,0,0,1-2.56,7.64,17.14,17.14,0,0,1-6.09,5,40.13,40.13,0,0,1-7.94,2.8A48.43,48.43,0,0,1,19.1,31c-1.93.17-3.62.25-5.06.25h-.42L6,58.46a7.56,7.56,0,0,1-4.13-1.18A3.46,3.46,0,0,1,0,54.33ZM14.25,29A40.68,40.68,0,0,0,25,26.88a21.2,21.2,0,0,0,8.47-5.36A11.78,11.78,0,0,0,37,13.05a8.8,8.8,0,0,0-3.84-7.67A16.59,16.59,0,0,0,23.8,2.55Q19.49,11,14.25,29Z"/><path class="cls-1" d="M38.38,46.72q0-6.51,4-17.66A108.13,108.13,0,0,1,51.8,9.18Q57.16.46,60.48.46a2.52,2.52,0,0,1,2.28,1.59,7.45,7.45,0,0,1,.83,3.54q0,5.37-5.32,14.5T46.65,32.89A34.92,34.92,0,0,0,44.18,45.2q0,.31,0,.81c0,.34,0,.57,0,.71.09-.14.39-.88.9-2.23s1.13-2.76,1.86-4.26a43.69,43.69,0,0,1,2.68-4.68,13.55,13.55,0,0,1,4-4A9.24,9.24,0,0,1,58.82,30a5.53,5.53,0,0,1,4.84,2.14,8.45,8.45,0,0,1,1.53,5,17.55,17.55,0,0,1-1.53,6.32,17.35,17.35,0,0,0-1.52,5.21c0,1.54.63,2.3,1.88,2.3h.07c1.6,0,3.58-1.15,5.92-3.46a28.47,28.47,0,0,0,5.75-8.17l1.17,1.2a31.49,31.49,0,0,1-6.49,9.64,11.58,11.58,0,0,1-8.15,3.69,5.83,5.83,0,0,1-4.18-1.41,4.82,4.82,0,0,1-1.48-3.65,23.11,23.11,0,0,1,1.06-5.21,23.62,23.62,0,0,0,1.06-5.29c0-2-.87-3-2.62-3s-3.18,1-4.6,3.08a28.14,28.14,0,0,0-3.39,6.73A36.84,36.84,0,0,1,45,51.85q-1.82,3.07-3.69,3.08c-1,0-1.77-.77-2.25-2.32A20.21,20.21,0,0,1,38.38,46.72Zm9.79-18.46a41.07,41.07,0,0,0,8.16-11.07q3.8-7.11,3.8-9.94-1.53.6-5.56,7.22A66.76,66.76,0,0,0,48.17,28.26Z"/><path class="cls-1" d="M72.93,47.68a17.82,17.82,0,0,1,2.76-9.34q2.76-4.56,5.94-4.56a6.4,6.4,0,0,1,2.26.56,10,10,0,0,1,2.36-5.5,6.81,6.81,0,0,1,5.39-2.17,5.32,5.32,0,0,1,4.28,1.62,6.35,6.35,0,0,1,1.38,4.25q0,5-4.81,12.31a4.72,4.72,0,0,0,2.05.42A8.82,8.82,0,0,0,98.87,44a8.61,8.61,0,0,0,3.56-4.09l1.31.92a12.26,12.26,0,0,1-4.11,5.31,9.17,9.17,0,0,1-5.3,1.8,11.55,11.55,0,0,1-3.64-.64q-6,7.26-12.1,7.25a4.83,4.83,0,0,1-4.35-2A8.6,8.6,0,0,1,72.93,47.68Zm5.8-.22c0,2.22.83,3.33,2.48,3.33s4.07-1.71,7-5.13c-2.75-2.43-4.21-6-4.35-10.65-.92.48-2,2.15-3.23,5A19.32,19.32,0,0,0,78.73,47.46Zm9.2-11.24A14.55,14.55,0,0,0,88.51,40a8.93,8.93,0,0,0,1.54,3.29q4.22-6,4.21-10.79c0-2.12-.69-3.18-2.05-3.18-1,0-2,.67-2.9,2A8.41,8.41,0,0,0,87.93,36.22Z"/><path class="cls-1" d="M100.27,47.89q0-5.66,4-16.52a13.75,13.75,0,0,1-2.51-.63V28.47c1.16.14,2.31.27,3.47.39a84.31,84.31,0,0,1,7-14.08q3.73-5.86,6.07-5.87a2,2,0,0,1,1.39.59,2,2,0,0,1,.62,1.54,9.46,9.46,0,0,1-1.37,3.87c-.92,1.71-2.23,4-3.91,6.84s-3,5.3-4,7.32a128.71,128.71,0,0,0,13.26-.53V31q-8.62.89-14.57.88-3.78,8.88-3.79,14.54a7,7,0,0,0,1,4.21,3.54,3.54,0,0,0,3,1.24c2.4,0,4.88-1.11,7.41-3.31a29,29,0,0,0,6.63-8.93l1,.71a31.59,31.59,0,0,1-7.68,11q-4.69,4.21-9.8,4.22a6.94,6.94,0,0,1-5.2-1.91Q100.27,51.68,100.27,47.89Z"/><path class="cls-1" d="M120.75,47.68a17.82,17.82,0,0,1,2.76-9.34q2.76-4.56,5.94-4.56a6.4,6.4,0,0,1,2.26.56,10,10,0,0,1,2.36-5.5,6.81,6.81,0,0,1,5.39-2.17,5.32,5.32,0,0,1,4.28,1.62,6.35,6.35,0,0,1,1.38,4.25q0,5-4.81,12.31a4.72,4.72,0,0,0,2.05.42A8.79,8.79,0,0,0,146.69,44a8.61,8.61,0,0,0,3.56-4.09l1.31.92a12.33,12.33,0,0,1-4.11,5.31,9.17,9.17,0,0,1-5.3,1.8,11.55,11.55,0,0,1-3.64-.64q-6,7.26-12.1,7.25a4.83,4.83,0,0,1-4.35-2A8.6,8.6,0,0,1,120.75,47.68Zm5.8-.22c0,2.22.83,3.33,2.48,3.33s4.06-1.71,7-5.13c-2.76-2.43-4.2-6-4.35-10.65-.92.48-2,2.15-3.23,5A19.32,19.32,0,0,0,126.55,47.46Zm9.2-11.24a14.55,14.55,0,0,0,.58,3.82,8.93,8.93,0,0,0,1.54,3.29q4.2-6,4.21-10.79c0-2.12-.69-3.18-2.05-3.18-1,0-2,.67-2.9,2A8.41,8.41,0,0,0,135.75,36.22Z"/><path class="cls-1" d="M147.7,47.68a17.82,17.82,0,0,1,2.76-9.34q2.76-4.56,5.94-4.56a6.4,6.4,0,0,1,2.26.56,10,10,0,0,1,2.36-5.5,6.81,6.81,0,0,1,5.39-2.17,5.32,5.32,0,0,1,4.28,1.62,6.35,6.35,0,0,1,1.38,4.25q0,5-4.81,12.31a4.72,4.72,0,0,0,2.05.42A8.82,8.82,0,0,0,173.64,44a8.61,8.61,0,0,0,3.56-4.09l1.31.92a12.26,12.26,0,0,1-4.11,5.31,9.17,9.17,0,0,1-5.3,1.8,11.55,11.55,0,0,1-3.64-.64q-6,7.26-12.1,7.25a4.83,4.83,0,0,1-4.35-2A8.6,8.6,0,0,1,147.7,47.68Zm5.8-.22c0,2.22.83,3.33,2.48,3.33s4.06-1.71,7-5.13c-2.75-2.43-4.21-6-4.35-10.65-.92.48-2,2.15-3.23,5A19.32,19.32,0,0,0,153.5,47.46Zm9.2-11.24a14.55,14.55,0,0,0,.58,3.82,8.93,8.93,0,0,0,1.54,3.29q4.22-6,4.21-10.79c0-2.12-.69-3.18-2.05-3.18-1,0-2,.67-2.9,2A8.41,8.41,0,0,0,162.7,36.22Z"/><path class="cls-1" d="M174.09,45.94a6.8,6.8,0,0,1,.9-3.85,5.08,5.08,0,0,1,2.31-1.88,8.54,8.54,0,0,0,1.56-.7,37.39,37.39,0,0,0,7-9.94v-.71c0-3.54,1.08-5.3,3.25-5.3A1.5,1.5,0,0,1,190.88,25a6.45,6.45,0,0,1-.17,1,7.42,7.42,0,0,0-.18,1.57q0,1.95,2.11,7.85a30,30,0,0,1,2.1,9.38,18.74,18.74,0,0,1-.28,3c3.27-.83,6.12-3.55,8.52-8.17l.89.64q-3,8.63-10.08,9.72A8.61,8.61,0,0,1,190,54.36a11.87,11.87,0,0,1-6,1.49c-3.39,0-5.9-1-7.51-2.92A10.56,10.56,0,0,1,174.09,45.94Zm4,.15a7.54,7.54,0,0,0,1.45,4.59,4.65,4.65,0,0,0,4,2,4.86,4.86,0,0,0,4.64-2.83,13.84,13.84,0,0,1-5.22-2.19,16.62,16.62,0,0,1-3.84-3.5Q178.08,44.35,178.08,46.09Zm2.09-4.57a13.47,13.47,0,0,0,3.48,3.81,13.07,13.07,0,0,0,5.08,2.35,8.11,8.11,0,0,0,.21-2.23,21.43,21.43,0,0,0-.3-3.38c-.2-1.24-.37-2.2-.51-2.9s-.43-1.88-.87-3.55-.7-2.73-.8-3.15A48.57,48.57,0,0,1,180.17,41.52Z"/></g></g></svg>